<svg xmlns="http://www.w3.org/2000/svg" width="1200" height="260" viewBox="0 0 1200 260">
  <defs>
    <style>
      .px { shape-rendering: crispEdges; image-rendering: pixelated; }
    </style>

    <filter id="noise">
      <feTurbulence type="fractalNoise" baseFrequency="0.8" numOctaves="2" stitchTiles="stitch">
        <animate attributeName="baseFrequency" values="0.75;0.85;0.78;0.82;0.75" dur="6s" repeatCount="indefinite"/>
      </feTurbulence>
      <feColorMatrix type="matrix" values="
        0 0 0 0 0
        0 0 0 0 0
        0 0 0 0 0
        0 0 0 .07 0"/>
    </filter>

    <radialGradient id="v" cx="50%" cy="45%" r="75%">
      <stop offset="0%" stop-color="#0b0b0b" stop-opacity="0"/>
      <stop offset="100%" stop-color="#000" stop-opacity="0.60"/>
    </radialGradient>

    <pattern id="grid" width="10" height="10" patternUnits="userSpaceOnUse">
      <path d="M10 0H0V10" fill="none" stroke="#ffffff" stroke-opacity="0.04" stroke-width="1"/>
    </pattern>
  </defs>

  <!-- background -->
  <rect width="1200" height="260" rx="26" fill="#050505"/>
  <rect width="1200" height="260" rx="26" fill="url(#grid)"/>
  <rect width="1200" height="260" rx="26" filter="url(#noise)"/>
  <rect width="1200" height="260" rx="26" fill="url(#v)"/>

  <!-- scanline -->
  <g opacity="0.10">
    <rect x="0" y="0" width="1200" height="2" fill="#fff">
      <animate attributeName="y" values="-2;262" dur="3.8s" repeatCount="indefinite"/>
    </rect>
  </g>

  <!-- Pixel text + smiley -->
  <g class="px" transform="translate(120 43) scale(6)" fill="#f2f2f2">

    <!-- HI, -->
    <g>
      <!-- H -->
      <rect x="0" y="4" width="1" height="9"/>
      <rect x="4" y="4" width="1" height="9"/>
      <rect x="1" y="8" width="3" height="1"/>

      <!-- I -->
      <rect x="8" y="4" width="5" height="1"/>
      <rect x="10" y="5" width="1" height="7"/>
      <rect x="8" y="12" width="5" height="1"/>

      <!-- comma -->
      <rect x="15" y="12" width="1" height="1"/>
      <rect x="14" y="13" width="1" height="1"/>
    </g>

    <!-- I'M KAMRON! -->
    <g transform="translate(0 16)">
      <!-- I -->
      <rect x="0" y="4" width="5" height="1"/>
      <rect x="2" y="5" width="1" height="7"/>
      <rect x="0" y="12" width="5" height="1"/>

      <!-- apostrophe -->
      <rect x="7" y="4" width="1" height="2"/>

      <!-- M -->
      <rect x="10" y="4" width="1" height="9"/>
      <rect x="14" y="4" width="1" height="9"/>
      <rect x="11" y="5" width="1" height="1"/>
      <rect x="13" y="5" width="1" height="1"/>
      <rect x="12" y="6" width="1" height="1"/>

      <!-- K (fixed, full shape) -->
      <rect x="20" y="4" width="1" height="9"/>
      <rect x="21" y="8" width="1" height="1"/>
      <rect x="22" y="7" width="1" height="1"/>
      <rect x="22" y="9" width="1" height="1"/>
      <rect x="23" y="6" width="1" height="1"/>
      <rect x="23" y="10" width="1" height="1"/>

      <!-- A -->
      <rect x="26" y="6" width="1" height="7"/>
      <rect x="30" y="6" width="1" height="7"/>
      <rect x="27" y="4" width="3" height="1"/>
      <rect x="27" y="8" width="3" height="1"/>

      <!-- M -->
      <rect x="34" y="4" width="1" height="9"/>
      <rect x="38" y="4" width="1" height="9"/>
      <rect x="35" y="5" width="1" height="1"/>
      <rect x="37" y="5" width="1" height="1"/>
      <rect x="36" y="6" width="1" height="1"/>

      <!-- R -->
      <rect x="42" y="4" width="1" height="9"/>
      <rect x="43" y="4" width="3" height="1"/>
      <rect x="46" y="5" width="1" height="3"/>
      <rect x="43" y="8" width="3" height="1"/>
      <rect x="46" y="9" width="1" height="4"/>

      <!-- O -->
      <rect x="50" y="4" width="3" height="1"/>
      <rect x="49" y="5" width="1" height="7"/>
      <rect x="53" y="5" width="1" height="7"/>
      <rect x="50" y="12" width="3" height="1"/>

      <!-- N -->
      <rect x="57" y="4" width="1" height="9"/>
      <rect x="61" y="4" width="1" height="9"/>
      <rect x="58" y="5" width="1" height="1"/>
      <rect x="59" y="6" width="1" height="1"/>
      <rect x="60" y="7" width="1" height="1"/>

      <!-- exclamation ! -->
      <rect x="65" y="4" width="1" height="6"/>
      <rect x="65" y="12" width="1" height="1"/>
    </g>

    <!-- smiley -->
    <g transform="translate(92 2)">
      <rect x="0" y="6" width="1" height="1"/>
      <rect x="4" y="6" width="1" height="1"/>
      <rect x="1" y="9" width="3" height="1"/>
      <rect x="0" y="8" width="1" height="1"/>
      <rect x="4" y="8" width="1" height="1"/>

      <animateTransform attributeName="transform" type="translate"
        values="92 2; 92 1; 92 2; 92 3; 92 2"
        dur="3.6s" repeatCount="indefinite"/>
    </g>
  </g>

  <!-- corner pixels -->
  <g class="px" fill="#f2f2f2" opacity="0.25">
    <rect x="58" y="44" width="6" height="6"/>
    <rect x="74" y="44" width="6" height="6"/>
    <rect x="1120" y="206" width="6" height="6"/>
    <rect x="1136" y="206" width="6" height="6"/>
  </g>
</svg>
